<svg width="98" height="45" viewBox="0 0 98 45" fill="none" xmlns="http://www.w3.org/2000/svg">
<path d="M23.048 35C22.3013 35 21.736 34.9893 21.352 34.968C20.9787 34.9467 20.7013 34.8933 20.52 34.808L20.328 33.256C20.4347 33.384 20.5307 33.5653 20.616 33.8C20.712 34.0347 20.7867 34.296 20.84 34.584C20.8933 34.8613 20.92 35.128 20.92 35.384C20.92 37.4107 20.4987 39.112 19.656 40.488C18.8133 41.8747 17.528 42.92 15.8 43.624C14.072 44.3387 11.896 44.696 9.272 44.696C7.48 44.696 5.96 44.36 4.712 43.688C3.464 43.0267 2.52 42.056 1.88 40.776C1.25067 39.5067 0.936 37.9707 0.936 36.168C0.936 34.792 1.08533 33.4 1.384 31.992C1.68267 30.584 2.11467 29.2613 2.68 28.024H3.08C2.80267 28.8347 2.6 29.656 2.472 30.488C2.35467 31.32 2.296 32.1147 2.296 32.872C2.296 34.0987 2.58933 35.144 3.176 36.008C3.76267 36.8827 4.62133 37.544 5.752 37.992C6.88267 38.4507 8.25333 38.68 9.864 38.68C12.264 38.68 14.2373 38.5093 15.784 38.168C17.3413 37.8267 18.4667 37.4427 19.16 37.016C19.864 36.5893 20.216 36.2427 20.216 35.976C20.216 35.7093 19.928 35.4853 19.352 35.304C18.7867 35.1227 18.088 34.9787 17.256 34.872C16.4347 34.7653 15.3467 34.6427 13.992 34.504C12.68 34.3653 11.6773 34.2533 10.984 34.168C10.3013 34.0827 9.73067 33.9707 9.272 33.832V33.64C9.88 32.7867 10.4293 31.9547 10.92 31.144C11.4213 30.3227 11.8427 29.4747 12.184 28.6C13.2613 28.7813 14.5413 28.8933 16.024 28.936C17.5067 28.968 20.1733 28.984 24.024 28.984L23.048 35ZM30.5913 23.176C29.8659 23.176 29.1619 23.2987 28.4793 23.544C27.8073 23.7893 27.2579 24.0933 26.8313 24.456C26.4153 24.8187 26.2073 25.1653 26.2073 25.496C26.2073 25.8373 26.4099 26.2533 26.8153 26.744C27.2313 27.224 27.8073 27.688 28.5433 28.136C29.2793 28.584 30.1059 28.9307 31.0233 29.176H29.0873C30.3566 28.9947 31.4286 28.744 32.3033 28.424C33.1779 28.104 33.8286 27.768 34.2553 27.416C34.6819 27.064 34.8953 26.7493 34.8953 26.472C34.8953 25.96 34.6873 25.448 34.2713 24.936C33.8553 24.424 33.3113 24.0027 32.6393 23.672C31.9779 23.3413 31.2953 23.176 30.5913 23.176ZM36.4473 35C34.3566 35 32.7779 34.7653 31.7113 34.296C30.6446 33.816 29.9619 33.08 29.6633 32.088H29.4713C29.1406 32.824 28.7246 33.4 28.2233 33.816C27.7219 34.232 27.0606 34.536 26.2393 34.728C25.4286 34.9093 24.3726 35 23.0712 35C22.7726 35 22.5379 34.84 22.3672 34.52C22.1859 34.2 22.0952 33.7147 22.0952 33.064C22.0952 31.7413 22.2712 30.7333 22.6232 30.04C22.9646 29.336 23.4339 28.984 24.0312 28.984C24.4793 28.984 24.9006 28.984 25.2953 28.984C25.6899 28.984 26.1113 28.984 26.5593 28.984V30.344C26.1753 30.056 25.8819 29.6773 25.6793 29.208C25.4873 28.7387 25.3913 28.2107 25.3913 27.624C25.3913 26.088 25.6473 24.6533 26.1593 23.32C26.6713 21.976 27.3699 20.904 28.2552 20.104C29.1513 19.304 30.1379 18.904 31.2153 18.904C32.1113 18.904 32.8953 19.1493 33.5673 19.64C34.2499 20.1307 34.7726 20.8293 35.1353 21.736C35.4979 22.6427 35.6793 23.704 35.6793 24.92C35.6793 26.0933 35.4819 27.1493 35.0873 28.088C34.6926 29.016 34.1113 29.768 33.3433 30.344V28.984C34.0686 28.984 34.7459 28.984 35.3753 28.984C36.0153 28.984 36.6979 28.984 37.4233 28.984L36.4473 35ZM36.4313 11.464C36.2393 11.8053 35.9939 12.3973 35.6953 13.24C35.3966 14.072 35.1939 14.7067 35.0873 15.144C33.8393 15.2293 32.5966 15.2987 31.3593 15.352C30.1219 15.3947 29.1619 15.416 28.4793 15.416C27.5619 15.416 26.8793 15.304 26.4313 15.08C25.9939 14.8453 25.7753 14.44 25.7753 13.864C25.7753 13.672 25.8019 13.464 25.8553 13.24C25.9193 13.0053 26.0099 12.712 26.1273 12.36C26.2126 12.104 26.2926 11.8373 26.3673 11.56C26.4419 11.2827 26.5006 11.016 26.5433 10.76H26.7353C26.7353 11.1333 26.9273 11.3893 27.3113 11.528C27.7059 11.6667 28.3566 11.736 29.2633 11.736C29.9033 11.736 31.0073 11.7147 32.5753 11.672C34.1433 11.6187 35.4286 11.5493 36.4313 11.464ZM51.08 9.176C51.5707 9.176 52.0187 9.31467 52.424 9.592C52.8293 9.86933 53.144 10.248 53.368 10.728C53.6027 11.208 53.72 11.7253 53.72 12.28C53.72 13.1653 53.4747 13.8427 52.984 14.312C52.4933 14.7707 51.768 15 50.808 15C50.04 15 49.4267 14.7867 48.968 14.36C48.5093 13.9227 48.28 13.3627 48.28 12.68C48.28 12.0613 48.4133 11.4853 48.68 10.952C48.9467 10.408 49.2987 9.976 49.736 9.656C50.1627 9.336 50.6107 9.176 51.08 9.176ZM51 10.344C50.616 10.344 50.28 10.44 49.992 10.632C49.6933 10.824 49.464 11.08 49.304 11.4C49.144 11.72 49.064 12.056 49.064 12.408C49.064 12.824 49.2347 13.1653 49.576 13.432C49.9173 13.6987 50.3547 13.832 50.888 13.832C51.5173 13.832 52.0133 13.704 52.376 13.448C52.7493 13.192 52.936 12.8667 52.936 12.472C52.936 12.1093 52.84 11.7627 52.648 11.432C52.4667 11.1013 52.2267 10.84 51.928 10.648C51.6293 10.4453 51.32 10.344 51 10.344ZM55.6615 35C54.6055 35 53.8108 34.52 53.2775 33.56C52.7442 32.5893 52.5735 31.016 52.7655 28.84C53.0215 28.904 53.4215 28.9467 53.9655 28.968C54.5202 28.9787 55.3468 28.984 56.4455 28.984H56.6375L55.6615 35ZM49.2615 19.096C50.2215 19.096 51.0482 19.3413 51.7415 19.832C52.4455 20.312 52.9842 20.9893 53.3575 21.864C53.7308 22.7387 53.9175 23.7573 53.9175 24.92C53.9175 26.8933 53.4748 28.648 52.5895 30.184C51.7148 31.7093 50.4828 32.8933 48.8935 33.736C47.3148 34.5787 45.5015 35 43.4535 35H36.4615C36.1308 35 35.8908 34.84 35.7415 34.52C35.5815 34.2 35.5015 33.7147 35.5015 33.064C35.5015 31.72 35.6722 30.7067 36.0135 30.024C36.3548 29.3307 36.8295 28.984 37.4375 28.984H44.4135C46.0668 28.984 47.5442 28.92 48.8455 28.792C50.1468 28.6533 51.1708 28.456 51.9175 28.2C52.6642 27.9333 53.0375 27.6133 53.0375 27.24C53.0375 26.8667 52.8402 26.4027 52.4455 25.848C52.0508 25.2827 51.4802 24.792 50.7335 24.376C49.9975 23.96 49.1228 23.752 48.1095 23.752C47.1388 23.752 46.0775 23.9867 44.9255 24.456C43.7735 24.9253 42.6695 25.576 41.6135 26.408C40.5575 27.2293 39.6828 28.152 38.9895 29.176L38.1415 29.224C38.5468 28.68 38.9202 28.072 39.2615 27.4C39.6028 26.728 39.8962 25.896 40.1415 24.904C40.3868 23.912 40.5095 22.792 40.5095 21.544C40.5095 20.2213 40.3922 18.664 40.1575 16.872C39.9335 15.08 39.6988 13.624 39.4535 12.504C40.0935 11.864 40.7655 11.0747 41.4695 10.136C42.1842 9.19733 42.8028 8.30667 43.3255 7.464H43.5335C43.5335 7.70933 43.5762 8.984 43.6615 11.288C43.7788 14.456 43.8375 16.3493 43.8375 16.968C43.8375 17.9173 43.7308 18.792 43.5175 19.592C43.3148 20.392 42.9148 21.3733 42.3175 22.536C41.7308 23.6987 40.8135 25.3307 39.5655 27.432H39.7575C41.1015 25.352 42.2962 23.7093 43.3415 22.504C44.3975 21.2987 45.3948 20.4293 46.3335 19.896C47.2722 19.3627 48.2482 19.096 49.2615 19.096ZM56.6057 7.232C57.5871 6.98667 58.5577 6.688 59.5177 6.336C60.4778 5.97333 61.2671 5.57333 61.8858 5.136C62.1844 4.60267 62.3871 4.176 62.4938 3.856C62.6004 3.536 62.6538 3.2 62.6538 2.848C62.6538 2.368 62.5418 1.98933 62.3178 1.712C62.0938 1.43467 61.8058 1.296 61.4538 1.296C61.1871 1.296 60.9044 1.376 60.6058 1.536C60.3178 1.696 60.0778 1.888 59.8857 2.112C59.6831 2.32533 59.5817 2.51733 59.5817 2.688C59.5817 2.85867 59.7897 3.09867 60.2058 3.408C60.6218 3.70667 61.3578 4.07467 62.4138 4.512L61.7578 5.68C60.6804 5.21067 59.9071 4.77333 59.4377 4.368C58.9684 3.96267 58.7337 3.54667 58.7337 3.12C58.7337 2.704 58.8884 2.256 59.1977 1.776C59.4964 1.296 59.8751 0.896 60.3338 0.576C60.8031 0.245333 61.2511 0.0799994 61.6778 0.0799994C62.3178 0.0799994 62.7924 0.309333 63.1018 0.768C63.4218 1.216 63.5818 1.776 63.5818 2.448C63.5818 3.17333 63.4484 3.85067 63.1818 4.48C62.9258 5.10933 62.5578 5.63733 62.0778 6.064C61.5124 6.56533 60.7658 7.008 59.8377 7.392C58.9097 7.76533 57.7684 8.096 56.4137 8.384L56.6057 7.232ZM64.385 26.856C64.385 28.7227 64.1077 30.248 63.553 31.432C63.009 32.616 62.097 33.5067 60.817 34.104C59.5477 34.7013 57.825 35 55.649 35C55.3183 35 55.0783 34.84 54.929 34.52C54.769 34.2 54.689 33.7147 54.689 33.064C54.689 31.72 54.8597 30.7067 55.201 30.024C55.5423 29.3307 56.017 28.984 56.625 28.984C57.7663 28.984 58.8863 28.92 59.985 28.792C61.0943 28.664 61.9957 28.4933 62.689 28.28C63.3823 28.0667 63.729 27.848 63.729 27.624C63.729 27.432 63.5157 27.096 63.089 26.616C62.6623 26.136 62.1183 25.6133 61.457 25.048C60.8063 24.4827 60.1663 23.9867 59.537 23.56C59.8997 23.1653 60.3103 22.4773 60.769 21.496C61.2383 20.504 61.665 19.512 62.049 18.52H62.257C62.2997 18.6587 62.4063 18.904 62.577 19.256C63.089 20.408 63.5157 21.5813 63.857 22.776C64.209 23.9707 64.385 25.3307 64.385 26.856ZM60.305 16.968C60.0063 16.5627 59.5317 16.0933 58.881 15.56C58.2303 15.0267 57.6703 14.6587 57.201 14.456V14.248L59.729 11.144C60.3157 11.432 60.9343 11.8693 61.585 12.456C62.2463 13.032 62.7263 13.5653 63.025 14.056L60.305 16.968ZM75.7517 35C74.2904 35 73.1278 34.7707 72.2638 34.312C71.3998 33.8533 70.7491 33.08 70.3118 31.992C69.8851 30.904 69.6291 29.384 69.5438 27.432C69.4158 24.232 69.2824 21.7413 69.1438 19.96C69.0158 18.1787 68.8664 16.792 68.6957 15.8C68.5251 14.808 68.2904 13.7093 67.9918 12.504C68.6318 11.864 69.3038 11.08 70.0078 10.152C70.7118 9.21333 71.3358 8.31733 71.8798 7.464H72.0718C72.0718 7.85866 72.0931 8.6 72.1358 9.688C72.2211 11.2027 72.2638 12.7227 72.2638 14.248C72.2638 15.1973 72.2318 16.824 72.1678 19.128C72.1038 21.6453 72.0718 23.576 72.0718 24.92C72.0718 25.8373 72.2318 26.5947 72.5518 27.192C72.8718 27.7893 73.3731 28.2373 74.0558 28.536C74.7491 28.8347 75.6398 28.984 76.7278 28.984L75.7517 35ZM82.7348 43.352C82.3721 42.9253 81.8814 42.4453 81.2628 41.912C80.6441 41.3893 80.1001 41.0267 79.6308 40.824V40.632L82.1588 37.528C82.7454 37.816 83.3641 38.248 84.0148 38.824C84.6761 39.4107 85.1561 39.9493 85.4548 40.44L82.7348 43.352ZM82.7348 19.288C83.4281 19.288 84.2014 19.416 85.0548 19.672C85.9188 19.928 87.0921 20.328 88.5748 20.872C89.8334 21.3413 90.8948 21.7253 91.7588 22.024C92.6334 22.312 93.5721 22.568 94.5748 22.792C95.5881 23.016 96.5801 23.144 97.5508 23.176V23.368C97.2308 23.656 96.7881 24.1947 96.2228 24.984C95.6681 25.7733 95.2414 26.4613 94.9428 27.048C94.1321 27.0693 93.3854 27.2187 92.7028 27.496C92.0201 27.7627 91.3961 28.0933 90.8308 28.488C90.2654 28.872 89.5561 29.4107 88.7028 30.104C87.4441 31.128 86.2974 31.9653 85.2628 32.616C84.2281 33.2667 82.9161 33.8267 81.3268 34.296C79.7481 34.7653 77.8867 35 75.7427 35C75.4121 35 75.1721 34.84 75.0227 34.52C74.8627 34.2 74.7827 33.7147 74.7827 33.064C74.7827 31.72 74.9534 30.7067 75.2947 30.024C75.6361 29.3307 76.1107 28.984 76.7188 28.984C79.6628 28.984 82.0681 28.8933 83.9348 28.712C85.8121 28.5307 87.2521 28.3173 88.2548 28.072C89.2681 27.816 90.3294 27.4853 91.4388 27.08C91.6414 27.0053 91.8388 26.936 92.0308 26.872C92.2228 26.7973 92.4201 26.728 92.6228 26.664V26.472C91.5241 26.2693 90.5161 26.04 89.5988 25.784C88.6814 25.528 87.6041 25.2027 86.3668 24.808C85.2361 24.4453 84.3348 24.1787 83.6628 24.008C82.9908 23.8373 82.3561 23.752 81.7588 23.752C80.9694 23.752 80.2814 23.9067 79.6948 24.216C79.1188 24.5253 78.6441 25.016 78.2708 25.688H78.0788C78.5161 23.9387 78.9641 22.6 79.4228 21.672C79.8921 20.744 80.3828 20.1147 80.8948 19.784C81.4174 19.4533 82.0308 19.288 82.7348 19.288Z" fill="black" fill-opacity="0.35"/>
</svg>
